<!DOCTYPE svg PUBLIC "-//W3C//DTD SVG 1.1//EN" "http://www.w3.org/Graphics/SVG/1.1/DTD/svg11.dtd">
<!-- Uploaded to: SVG Repo, www.svgrepo.com, Transformed by: SVG Repo Mixer Tools -->
<svg width="800px" height="800px" viewBox="0 0 21 21" xmlns="http://www.w3.org/2000/svg" fill="#000000">
<g id="SVGRepo_bgCarrier" stroke-width="0"/>
<g id="SVGRepo_tracerCarrier" stroke-linecap="round" stroke-linejoin="round"/>
<g id="SVGRepo_iconCarrier"> <g fill="none" fill-rule="evenodd" stroke="#b3b3b3" stroke-linecap="round" stroke-linejoin="round" transform="translate(4 3)"> <path d="m3.5 1.5c-.42139382 0-1.08806048 0-2 0-.55228475 0-1 .44771525-1 1v11c0 .5522848.44771525 1 1 1h10c.5522847 0 1-.4477152 1-1v-11c0-.55228475-.4477153-1-1-1-.8888889 0-1.55555556 0-2 0"/> <path d="m4.5.5h4c.55228475 0 1 .44771525 1 1s-.44771525 1-1 1h-4c-.55228475 0-1-.44771525-1-1s.44771525-1 1-1z"/> <path d="m5.5 5.5h5"/> <path d="m5.5 8.5h5"/> <path d="m5.5 11.5h5"/> <path d="m2.5 5.5h1"/> <path d="m2.5 8.5h1"/> <path d="m2.5 11.5h1"/> </g> </g>
</svg>